<svg width="256" height="256" viewBox="0 0 256 256" fill="none" xmlns="http://www.w3.org/2000/svg">
<path d="M128 0C57.3067 0 0 57.3067 0 128C0 150.613 5.86667 171.947 16.1067 190.507L0.426667 248.533L60 232.853C78.4 247.36 101.867 256 128 256C198.693 256 256 198.693 256 128C256 57.3067 198.693 0 128 0Z" fill="#25D366"/>
<path d="M194.56 182.293C191.68 190.613 179.947 197.653 170.133 199.787C163.413 201.28 154.56 202.453 125.12 190.293C87.36 174.72 63.04 136.32 61.12 133.76C59.2 131.2 45.12 112.427 45.12 92.9067C45.12 73.3867 55.1467 63.8933 59.2 59.7333C62.4 56.4267 67.6267 54.8267 72.8533 54.8267C74.56 54.8267 76.0533 54.9333 77.44 55C81.4933 55.1467 83.52 55.36 86.1867 61.76C89.4933 69.7067 97.6 89.4933 98.56 91.52C99.6267 93.5467 100.587 95.5733 99.2 98.3467C97.92 101.12 96.8533 102.4 94.8267 104.747C92.8 107.093 90.9867 108.8 88.96 111.36C87.1467 113.493 85.12 115.733 87.4667 119.787C89.8133 123.84 97.92 137.067 109.867 147.733C125.333 161.493 137.813 165.973 142.507 167.893C146.027 169.387 150.187 169.067 152.747 166.293C155.947 162.773 159.893 157.333 163.947 151.787C166.827 147.84 170.347 147.307 174.187 148.8C178.027 150.293 198.293 160.32 202.453 162.347C206.613 164.373 209.28 165.44 210.347 167.253C211.413 169.067 211.413 177.6 194.56 182.293Z" fill="white"/>
</svg>
